<?xml version="1.0" standalone="no"?>
<!DOCTYPE svg PUBLIC "-//W3C//DTD SVG 20010904//EN"
 "http://www.w3.org/TR/2001/REC-SVG-20010904/DTD/svg10.dtd">
<svg version="1.0" xmlns="http://www.w3.org/2000/svg"
 width="512.000000pt" height="512.000000pt" viewBox="0 0 512.000000 512.000000"
 preserveAspectRatio="xMidYMid meet">
<metadata>
Created by potrace 1.14, written by Peter Selinger 2001-2017
</metadata>
<g transform="translate(0.000000,512.000000) scale(0.100000,-0.100000)"
fill="#000000" stroke="none">
<path d="M3435 5101 c-77 -25 -128 -56 -184 -111 -94 -93 -129 -194 -127 -365
2 -130 18 -172 84 -220 l41 -30 0 -202 1 -203 -232 -1 c-128 0 -248 -2 -267
-5 -57 -7 -151 -64 -192 -117 -66 -83 -69 -105 -69 -509 l0 -358 -242 0 -243
0 1 88 c2 149 -52 255 -162 325 -164 103 -391 37 -479 -139 -25 -52 -30 -72
-33 -166 l-4 -107 -332 -3 c-291 -3 -336 -6 -369 -21 -58 -27 -122 -92 -148
-150 l-23 -52 -2 -510 c-1 -308 3 -518 9 -531 9 -22 46 -44 72 -44 8 0 26 11
41 24 28 23 28 23 28 160 0 75 0 136 0 136 1 0 23 -7 50 -15 27 -8 80 -15 118
-15 37 0 68 -3 69 -7 7 -66 5 -74 -20 -79 -67 -14 -103 -72 -104 -168 0 -82
17 -123 66 -160 26 -19 42 -21 245 -23 245 -2 285 5 324 60 20 27 23 45 23
119 0 102 -15 131 -83 163 -38 18 -42 23 -42 57 l0 38 417 -2 417 -3 1 -37 c1
-34 -4 -42 -26 -40 -4 1 -25 -15 -47 -34 -48 -40 -61 -85 -52 -176 6 -64 30
-105 76 -128 44 -22 432 -25 491 -4 69 25 88 62 88 166 0 101 -15 131 -83 163
-38 18 -42 23 -42 57 l0 38 78 0 c42 1 95 7 117 15 22 8 41 15 43 15 1 0 2
-390 2 -866 0 -947 3 -905 -58 -949 -26 -20 -45 -20 -995 -23 -1067 -3 -1001
-6 -1049 60 l-23 33 -1 589 0 589 -28 23 c-58 50 -128 8 -122 -74 1 -18 0 -36
-3 -41 -3 -4 -38 -11 -77 -14 -117 -9 -202 -65 -251 -165 l-28 -57 0 -280 c1
-279 1 -280 26 -335 50 -107 147 -171 266 -173 48 -2 63 -5 64 -17 6 -113 68
-209 169 -262 l45 -23 1005 0 1005 0 53 30 c85 47 139 126 151 220 6 46 8 50
34 50 15 1 27 -2 28 -5 0 -3 2 -37 3 -76 4 -77 19 -115 63 -155 43 -41 87 -59
143 -59 62 0 117 26 158 76 35 42 44 80 46 184 l2 75 399 0 400 0 5 -102 c5
-94 7 -104 36 -145 80 -109 226 -119 318 -22 45 47 56 86 56 191 l0 81 88 0
c48 0 107 5 131 11 93 26 178 102 212 190 l22 56 1 1122 c1 1120 1 1122 -20
1143 -32 32 -68 34 -101 6 l-28 -24 0 -1114 0 -1113 -24 -41 c-13 -24 -40 -51
-63 -64 l-39 -22 -757 -1 -757 -2 3 287 c4 320 0 345 -61 428 l-32 44 0 1164
0 1164 -24 19 c-30 24 -72 24 -102 0 l-24 -19 0 -1129 0 -1128 -56 -3 -56 -3
0 703 c-1 492 -4 715 -12 745 -18 67 -70 134 -131 170 -30 18 -64 33 -77 33
-26 0 -24 -49 -24 427 0 303 5 332 54 376 55 48 23 47 1062 47 1044 0 1014 1
1068 -48 48 -43 51 -61 52 -351 l0 -273 28 -24 c35 -30 59 -30 94 0 l28 24 -1
284 0 283 -28 62 c-33 72 -94 134 -164 166 -43 20 -68 22 -307 27 l-260 5 0
200 0 200 30 19 c35 22 48 38 76 90 20 36 21 52 17 175 -4 125 -7 141 -35 201
-53 114 -138 193 -256 235 -62 23 -76 24 -338 23 -226 0 -283 -3 -324 -17z
m645 -160 c25 -13 61 -40 81 -61 60 -64 73 -101 77 -227 4 -111 4 -111 -22
-128 -24 -16 -28 -16 -51 -1 -28 18 -27 15 -27 106 0 84 -12 131 -44 170 -53
62 -63 64 -341 65 l-251 0 -43 -30 c-63 -45 -81 -88 -84 -201 -1 -52 -6 -98
-11 -103 -22 -21 -53 -22 -74 -1 -19 19 -20 30 -16 125 4 121 23 169 87 234
75 75 106 81 409 78 257 -2 266 -3 310 -26z m-103 -234 c8 -5 12 -38 12 -96 0
-119 22 -166 106 -225 18 -13 19 -27 20 -215 l0 -201 -357 0 -358 0 0 203 0
202 40 28 c61 43 82 93 86 205 1 52 8 98 13 102 15 9 424 6 438 -3z m-2240
-1428 c35 -13 80 -55 101 -94 10 -20 16 -60 18 -117 l2 -88 -189 0 -189 0 -1
23 c-4 121 15 202 57 238 54 46 138 62 201 38z m-892 -794 c0 -187 -1 -348 -4
-357 -3 -15 -14 -18 -66 -18 -90 0 -141 29 -162 95 -6 17 -9 140 -9 280 1 247
1 250 25 284 33 45 73 61 151 58 l64 -2 1 -340z m255 -130 l0 -475 -53 0 -53
0 0 475 -1 475 54 0 53 0 0 -475z m985 115 l0 -355 -418 -3 -417 -2 0 360 0
360 417 -2 418 -3 0 -355z m255 320 c0 -22 0 -132 0 -245 0 -113 0 -309 0
-436 l0 -230 -52 3 -53 3 -1 465 c0 256 1 468 3 473 3 4 26 7 54 7 l49 0 0
-40z m333 14 c53 -39 57 -60 57 -334 0 -275 -4 -295 -58 -335 -20 -15 -47 -21
-104 -24 l-78 -3 0 362 0 362 78 -4 c57 -3 86 -10 105 -24z m-1447 -1101 l-1
-28 -177 -1 -176 0 -5 23 c-2 12 -2 25 1 28 3 3 85 5 182 5 l177 0 -1 -27z
m1244 -1 l0 -28 -180 0 -180 -1 0 29 0 28 180 0 180 0 0 -28z m-2018 -544 c3
-11 2 -586 -1 -680 -1 -26 -2 -26 -58 -22 -61 5 -93 22 -127 67 -19 26 -20 43
-21 273 0 167 3 258 11 281 14 41 45 72 82 83 43 13 109 12 114 -2z m2568 -9
c17 -11 39 -33 50 -51 18 -31 20 -51 20 -283 0 -225 -2 -254 -19 -285 -23 -43
-67 -71 -118 -72 -77 -2 -70 -38 -70 357 l0 355 53 -1 c32 -1 66 -10 84 -20z
m184 -881 c0 -83 -12 -108 -48 -108 -47 0 -60 22 -61 101 -1 41 0 77 2 81 2 4
27 7 56 5 l52 -2 -1 -77z m1216 6 c0 -85 -14 -114 -56 -114 -42 0 -54 25 -54
109 l0 78 55 2 55 2 0 -77z"/>
<path d="M3472 3595 c-20 -25 -20 -45 -20 -1359 0 -1007 3 -1339 12 -1357 23
-47 104 -51 127 -7 9 17 12 341 11 1343 0 726 -1 1330 -1 1343 -2 59 -92 85
-129 37z"/>
<path d="M3931 3594 l-21 -27 0 -1337 0 -1337 21 -27 c28 -36 80 -36 108 0
l21 27 0 1342 0 1342 -23 21 c-33 31 -80 29 -106 -4z"/>
<path d="M4395 3604 c-20 -15 -20 -28 -23 -1369 l-2 -1354 22 -21 c31 -29 81
-27 106 5 20 25 20 44 20 1365 1 1325 0 1339 -19 1365 -24 29 -72 34 -104 9z"/>
<path d="M1100 1330 c-134 -6 -170 -22 -210 -92 -24 -43 -24 -44 -25 -352 0
-215 3 -320 12 -344 16 -47 69 -100 113 -112 21 -6 289 -10 685 -10 731 0 700
-3 760 76 l30 39 3 322 c3 301 2 326 -16 366 -24 54 -78 97 -129 104 -53 6
-1083 9 -1223 3z m1211 -162 c14 -22 11 -572 -3 -586 -18 -18 -1274 -17 -1285
1 -10 17 -12 558 -1 579 11 22 73 24 767 21 412 -1 516 -4 522 -15z"/>
</g>
</svg>
